<svg width="24" height="24" viewBox="0 0 24 24" fill="none" xmlns="http://www.w3.org/2000/svg">
<g clip-path="url(#clip0_608_7129)">
<path d="M23.522 6.18492C23.3863 5.67434 23.1189 5.20834 22.7465 4.83358C22.3741 4.45881 21.9099 4.18842 21.4002 4.04947C19.5238 3.54492 12.0238 3.54492 12.0238 3.54492C12.0238 3.54492 4.5238 3.54492 2.64744 4.04947C2.13773 4.18842 1.67346 4.45881 1.30109 4.83358C0.92872 5.20834 0.661309 5.67434 0.525622 6.18492C0.0238038 8.06947 0.0238037 11.9995 0.0238037 11.9995C0.0238037 11.9995 0.0238038 15.9295 0.525622 17.814C0.661309 18.3246 0.92872 18.7906 1.30109 19.1654C1.67346 19.5401 2.13773 19.8105 2.64744 19.9495C4.5238 20.454 12.0238 20.454 12.0238 20.454C12.0238 20.454 19.5238 20.454 21.4002 19.9495C21.9099 19.8105 22.3741 19.5401 22.7465 19.1654C23.1189 18.7906 23.3863 18.3246 23.522 17.814C24.0238 15.9295 24.0238 11.9995 24.0238 11.9995C24.0238 11.9995 24.0238 8.06947 23.522 6.18492Z" fill="#FF0302"/>
<path d="M9.56927 15.5689V8.43164L15.842 12.0003L9.56927 15.5689Z" fill="#FEFEFE"/>
</g>
<defs>
<clipPath id="clip0_608_7129">
<rect width="24" height="24" fill="white"/>
</clipPath>
</defs>
</svg>
