<svg version="1.1" id="Layer_1" xmlns="http://www.w3.org/2000/svg" xmlns:xlink="http://www.w3.org/1999/xlink" x="0px" y="0px"
	 width="100%" viewBox="0 0 512 512" enable-background="new 0 0 512 512" xml:space="preserve">
<path fill="#010101" opacity="1.000000" stroke="none" 
	d="
M230.000000,513.000000 
	C153.351913,513.000000 77.203827,513.000000 1.027873,513.000000 
	C1.027873,342.393555 1.027873,171.787109 1.027873,1.090327 
	C171.564774,1.090327 342.129608,1.090327 512.847229,1.090327 
	C512.847229,171.666565 512.847229,342.333252 512.847229,513.000000 
	C418.787079,513.000000 324.643524,513.000000 230.000000,513.000000 
M270.839783,179.499924 
	C270.839752,223.489670 270.854553,267.479401 270.811401,311.469116 
	C270.807983,314.955231 270.588989,318.464355 270.153961,321.923035 
	C267.142975,345.861725 247.119293,365.284576 223.767838,367.018677 
	C197.639038,368.959076 175.008911,353.716858 168.086853,329.515472 
	C161.258011,305.639984 172.060822,280.291962 193.841202,268.791382 
	C202.300110,264.324890 211.272171,262.511200 220.761673,262.646729 
	C228.172394,262.752625 235.585846,262.667908 242.968475,262.667908 
	C242.968475,245.664597 242.968475,229.419708 242.968475,212.216003 
	C228.559647,212.932983 214.195938,212.112671 200.430496,214.601410 
	C144.227310,224.762726 108.597435,276.347412 117.908852,332.653412 
	C127.302879,389.458954 184.833664,427.730835 240.819626,414.418793 
	C288.572235,403.064362 320.107727,363.082001 320.336700,313.310211 
	C320.486938,280.651672 320.365845,247.991882 320.366211,215.332657 
	C320.366241,213.614929 320.366211,211.897186 320.366211,209.188644 
	C344.884216,224.775085 371.156403,224.975357 397.668945,223.681061 
	C397.668945,207.095184 397.668945,190.841019 397.668945,174.180389 
	C392.615112,174.180389 387.816925,174.261505 383.022614,174.160126 
	C376.868927,174.030014 370.595703,174.460144 364.587677,173.417511 
	C338.324402,168.859879 321.199341,148.337006 320.683807,121.304955 
	C320.532074,113.349297 320.660461,105.388290 320.660461,97.285828 
	C303.814240,97.285828 287.425629,97.285828 270.839783,97.285828 
	C270.839783,124.548553 270.839783,151.524231 270.839783,179.499924 
z"/>
<path fill="#FEFEFE" opacity="1.000000" stroke="none" 
	d="
M270.839783,178.999908 
	C270.839783,151.524231 270.839783,124.548553 270.839783,97.285828 
	C287.425629,97.285828 303.814240,97.285828 320.660461,97.285828 
	C320.660461,105.388290 320.532074,113.349297 320.683807,121.304955 
	C321.199341,148.337006 338.324402,168.859879 364.587677,173.417511 
	C370.595703,174.460144 376.868927,174.030014 383.022614,174.160126 
	C387.816925,174.261505 392.615112,174.180389 397.668945,174.180389 
	C397.668945,190.841019 397.668945,207.095184 397.668945,223.681061 
	C371.156403,224.975357 344.884216,224.775085 320.366211,209.188644 
	C320.366211,211.897186 320.366241,213.614929 320.366211,215.332657 
	C320.365845,247.991882 320.486938,280.651672 320.336700,313.310211 
	C320.107727,363.082001 288.572235,403.064362 240.819626,414.418793 
	C184.833664,427.730835 127.302879,389.458954 117.908852,332.653412 
	C108.597435,276.347412 144.227310,224.762726 200.430496,214.601410 
	C214.195938,212.112671 228.559647,212.932983 242.968475,212.216003 
	C242.968475,229.419708 242.968475,245.664597 242.968475,262.667908 
	C235.585846,262.667908 228.172394,262.752625 220.761673,262.646729 
	C211.272171,262.511200 202.300110,264.324890 193.841202,268.791382 
	C172.060822,280.291962 161.258011,305.639984 168.086853,329.515472 
	C175.008911,353.716858 197.639038,368.959076 223.767838,367.018677 
	C247.119293,365.284576 267.142975,345.861725 270.153961,321.923035 
	C270.588989,318.464355 270.807983,314.955231 270.811401,311.469116 
	C270.854553,267.479401 270.839752,223.489670 270.839783,178.999908 
z"/>
</svg>