<svg width="24" height="24" viewBox="0 0 24 24" fill="none" xmlns="http://www.w3.org/2000/svg">
<g clip-path="url(#clip0_608_7095)">
<path d="M12.0039 0C6.994 0 5.52878 0.00517035 5.24396 0.0287546C4.21586 0.114293 3.57609 0.276208 2.87918 0.62326C2.342 0.890126 1.91839 1.19935 1.50031 1.63285C0.738904 2.42347 0.277468 3.39614 0.110383 4.55222C0.0291982 5.11353 0.00552316 5.228 0.000806301 8.09494C-0.00100788 9.05065 0.000806301 10.3082 0.000806301 11.9953C0.000806301 17.0025 0.00624925 18.4666 0.0302871 18.751C0.113376 19.7517 0.270212 20.3813 0.602478 21.0699C1.23744 22.3882 2.45022 23.3778 3.87888 23.7471C4.37352 23.8745 4.91985 23.9447 5.62121 23.9779C5.91847 23.9908 8.94742 24 11.9782 24C15.009 24 18.0399 23.9964 18.3296 23.9816C19.1418 23.9433 19.6134 23.88 20.1349 23.7452C21.5727 23.3742 22.7633 22.3993 23.4112 21.0626C23.7369 20.3904 23.9021 19.7369 23.9769 18.7885C23.9932 18.5817 24 15.2847 24 11.9922C24 8.69907 23.9926 5.40824 23.9764 5.20142C23.9007 4.23764 23.7355 3.58953 23.3991 2.90468C23.1232 2.34392 22.8168 1.92511 22.372 1.49697C21.5781 0.738551 20.6072 0.276934 19.4502 0.11003C18.8896 0.0289362 18.7781 0.00498898 15.9096 0H12.0039Z" fill="url(#paint0_radial_608_7095)"/>
<path d="M12.0039 0C6.994 0 5.52878 0.00517035 5.24396 0.0287546C4.21586 0.114293 3.57609 0.276208 2.87918 0.62326C2.342 0.890126 1.91839 1.19935 1.50031 1.63285C0.738904 2.42347 0.277468 3.39614 0.110383 4.55222C0.0291982 5.11353 0.00552316 5.228 0.000806301 8.09494C-0.00100788 9.05065 0.000806301 10.3082 0.000806301 11.9953C0.000806301 17.0025 0.00624925 18.4666 0.0302871 18.751C0.113376 19.7517 0.270212 20.3813 0.602478 21.0699C1.23744 22.3882 2.45022 23.3778 3.87888 23.7471C4.37352 23.8745 4.91985 23.9447 5.62121 23.9779C5.91847 23.9908 8.94742 24 11.9782 24C15.009 24 18.0399 23.9964 18.3296 23.9816C19.1418 23.9433 19.6134 23.88 20.1349 23.7452C21.5727 23.3742 22.7633 22.3993 23.4112 21.0626C23.7369 20.3904 23.9021 19.7369 23.9769 18.7885C23.9932 18.5817 24 15.2847 24 11.9922C24 8.69907 23.9926 5.40824 23.9764 5.20142C23.9007 4.23764 23.7355 3.58953 23.3991 2.90468C23.1232 2.34392 22.8168 1.92511 22.372 1.49697C21.5781 0.738551 20.6072 0.276934 19.4502 0.11003C18.8896 0.0289362 18.7781 0.00498898 15.9096 0H12.0039Z" fill="url(#paint1_radial_608_7095)"/>
<path d="M12.0039 0C6.994 0 5.52878 0.00517035 5.24396 0.0287546C4.21586 0.114293 3.57609 0.276208 2.87918 0.62326C2.342 0.890126 1.91839 1.19935 1.50031 1.63285C0.738904 2.42347 0.277468 3.39614 0.110383 4.55222C0.0291982 5.11353 0.00552316 5.228 0.000806301 8.09494C-0.00100788 9.05065 0.000806301 10.3082 0.000806301 11.9953C0.000806301 17.0025 0.00624925 18.4666 0.0302871 18.751C0.113376 19.7517 0.270212 20.3813 0.602478 21.0699C1.23744 22.3882 2.45022 23.3778 3.87888 23.7471C4.37352 23.8745 4.91985 23.9447 5.62121 23.9779C5.91847 23.9908 8.94742 24 11.9782 24C15.009 24 18.0399 23.9964 18.3296 23.9816C19.1418 23.9433 19.6134 23.88 20.1349 23.7452C21.5727 23.3742 22.7633 22.3993 23.4112 21.0626C23.7369 20.3904 23.9021 19.7369 23.9769 18.7885C23.9932 18.5817 24 15.2847 24 11.9922C24 8.69907 23.9926 5.40824 23.9764 5.20142C23.9007 4.23764 23.7355 3.58953 23.3991 2.90468C23.1232 2.34392 22.8168 1.92511 22.372 1.49697C21.5781 0.738551 20.6072 0.276934 19.4502 0.11003C18.8896 0.0289362 18.7781 0.00498898 15.9096 0H12.0039Z" fill="url(#paint2_radial_608_7095)"/>
<path d="M12.0039 0C6.994 0 5.52878 0.00517035 5.24396 0.0287546C4.21586 0.114293 3.57609 0.276208 2.87918 0.62326C2.342 0.890126 1.91839 1.19935 1.50031 1.63285C0.738904 2.42347 0.277468 3.39614 0.110383 4.55222C0.0291982 5.11353 0.00552316 5.228 0.000806301 8.09494C-0.00100788 9.05065 0.000806301 10.3082 0.000806301 11.9953C0.000806301 17.0025 0.00624925 18.4666 0.0302871 18.751C0.113376 19.7517 0.270212 20.3813 0.602478 21.0699C1.23744 22.3882 2.45022 23.3778 3.87888 23.7471C4.37352 23.8745 4.91985 23.9447 5.62121 23.9779C5.91847 23.9908 8.94742 24 11.9782 24C15.009 24 18.0399 23.9964 18.3296 23.9816C19.1418 23.9433 19.6134 23.88 20.1349 23.7452C21.5727 23.3742 22.7633 22.3993 23.4112 21.0626C23.7369 20.3904 23.9021 19.7369 23.9769 18.7885C23.9932 18.5817 24 15.2847 24 11.9922C24 8.69907 23.9926 5.40824 23.9764 5.20142C23.9007 4.23764 23.7355 3.58953 23.3991 2.90468C23.1232 2.34392 22.8168 1.92511 22.372 1.49697C21.5781 0.738551 20.6072 0.276934 19.4502 0.11003C18.8896 0.0289362 18.7781 0.00498898 15.9096 0H12.0039Z" fill="url(#paint3_radial_608_7095)"/>
<path d="M12.0047 3.08203C9.58137 3.08203 9.27722 3.09264 8.32541 3.13591C7.37542 3.17936 6.72703 3.32967 6.15965 3.55018C5.57276 3.77786 5.07486 4.08255 4.57886 4.57836C4.08251 5.074 3.77763 5.57144 3.54896 6.15779C3.32772 6.7249 3.17714 7.37301 3.13442 8.32192C3.09178 9.273 3.08063 9.57715 3.08063 11.9988C3.08063 14.4205 3.09151 14.7234 3.1346 15.6745C3.17823 16.6238 3.32872 17.2718 3.54914 17.8387C3.77727 18.4252 4.08214 18.9227 4.57832 19.4182C5.07414 19.9142 5.57194 20.2197 6.15847 20.4474C6.72631 20.6679 7.37487 20.8182 8.32459 20.8617C9.27649 20.905 9.58046 20.9156 12.0037 20.9156C14.4273 20.9156 14.7305 20.905 15.6823 20.8617C16.6323 20.8181 17.2815 20.6679 17.8493 20.4474C18.436 20.2197 18.9331 19.9142 19.4289 19.4182C19.9253 18.9227 20.2301 18.4252 20.4588 17.8389C20.6781 17.2718 20.8287 16.6236 20.8733 15.6747C20.9162 14.7236 20.9272 14.4205 20.9272 11.9988C20.9272 9.57715 20.9162 9.27327 20.8733 8.3221C20.8287 7.37283 20.6781 6.7249 20.4588 6.15797C20.2301 5.57144 19.9253 5.074 19.4289 4.57836C18.9325 4.08237 18.4362 3.77768 17.8487 3.55018C17.2798 3.32967 16.631 3.17936 15.6811 3.13591C14.7293 3.09264 14.4262 3.08203 12.002 3.08203H12.0047ZM11.2043 4.68894C11.4419 4.68848 11.7069 4.68894 12.0048 4.68894C14.3874 4.68894 14.6698 4.69746 15.6106 4.74019C16.4806 4.77992 16.9528 4.92523 17.2674 5.04724C17.6837 5.20888 17.9807 5.40209 18.2929 5.71413C18.6052 6.02617 18.7985 6.32342 18.9606 6.73959C19.0827 7.05345 19.2282 7.52531 19.2679 8.39476C19.3106 9.33468 19.32 9.61706 19.32 11.9968C19.32 14.3764 19.3106 14.6587 19.2679 15.5988C19.2281 16.4681 19.0827 16.94 18.9606 17.2539C18.7988 17.67 18.6052 17.9664 18.2929 18.2782C17.9805 18.5902 17.684 18.7835 17.2674 18.9451C16.9532 19.0677 16.4806 19.2127 15.6106 19.2524C14.6699 19.2951 14.3874 19.3044 12.0048 19.3044C9.62209 19.3044 9.33972 19.2951 8.39898 19.2524C7.52899 19.2122 7.05676 19.067 6.74209 18.9449C6.32564 18.7834 6.02821 18.5902 5.7159 18.278C5.4035 17.966 5.2102 17.6695 5.0481 17.2532C4.92592 16.9393 4.78042 16.4674 4.74078 15.598C4.69806 14.658 4.68944 14.3756 4.68944 11.9945C4.68944 9.61343 4.69806 9.3325 4.74078 8.39249C4.7806 7.52314 4.92592 7.05127 5.0481 6.73696C5.20984 6.32088 5.4035 6.02363 5.7159 5.7115C6.02821 5.39946 6.32564 5.20625 6.74209 5.04424C7.05658 4.9217 7.52899 4.77674 8.39898 4.73674C9.22216 4.69964 9.54118 4.68848 11.2043 4.68667V4.68894ZM16.768 6.16949C16.1769 6.16949 15.6972 6.64816 15.6972 7.23913C15.6972 7.82982 16.1769 8.30913 16.768 8.30913C17.3592 8.30913 17.8389 7.82982 17.8389 7.23913C17.8389 6.64834 17.3592 6.16903 16.768 6.16903V6.16949ZM12.0047 7.41964C9.47397 7.41964 7.42213 9.46993 7.42213 11.9988C7.42213 14.5276 9.47397 16.577 12.0047 16.577C14.5354 16.577 16.5864 14.5276 16.5864 11.9988C16.5864 9.46993 14.5352 7.41964 12.0046 7.41964H12.0047ZM12.0047 9.02654C13.6474 9.02654 14.9792 10.3572 14.9792 11.9988C14.9792 13.6402 13.6474 14.9711 12.0047 14.9711C10.3619 14.9711 9.03022 13.6402 9.03022 11.9988C9.03022 10.3572 10.3618 9.02654 12.0047 9.02654Z" fill="white"/>
</g>
<defs>
<radialGradient id="paint0_radial_608_7095" cx="0" cy="0" r="1" gradientUnits="userSpaceOnUse" gradientTransform="translate(23.225 11.2491) rotate(164.25) scale(15.3347 11.0479)">
<stop stop-color="#FF005F"/>
<stop offset="1" stop-color="#FC01D8"/>
</radialGradient>
<radialGradient id="paint1_radial_608_7095" cx="0" cy="0" r="1" gradientUnits="userSpaceOnUse" gradientTransform="translate(6.3748 25.8486) rotate(-90) scale(19.1573 20.3255)">
<stop stop-color="#FFCC00"/>
<stop offset="0.124161" stop-color="#FFCC00"/>
<stop offset="0.567196" stop-color="#FE4A05"/>
<stop offset="0.694203" stop-color="#FF0F3F"/>
<stop offset="1" stop-color="#FE0657" stop-opacity="0"/>
</radialGradient>
<radialGradient id="paint2_radial_608_7095" cx="0" cy="0" r="1" gradientUnits="userSpaceOnUse" gradientTransform="translate(12.6064 23.6616) rotate(-59.8703) scale(7.9217 10.3132)">
<stop stop-color="#FFCC00"/>
<stop offset="1" stop-color="#FFCC00" stop-opacity="0"/>
</radialGradient>
<radialGradient id="paint3_radial_608_7095" cx="0" cy="0" r="1" gradientUnits="userSpaceOnUse" gradientTransform="translate(3.25626 0.97731) rotate(164.274) scale(15.1646 5.16656)">
<stop stop-color="#780CFF"/>
<stop offset="1" stop-color="#820BFF" stop-opacity="0"/>
</radialGradient>
<clipPath id="clip0_608_7095">
<rect width="24" height="24" fill="white"/>
</clipPath>
</defs>
</svg>
